<svg xmlns="http://www.w3.org/2000/svg" xmlns:xlink="http://www.w3.org/1999/xlink" width="328" zoomAndPan="magnify" viewBox="0 0 246 98.999996" height="132" preserveAspectRatio="xMidYMid meet" version="1.0"><defs><g/></defs><g fill="#ffffff" fill-opacity="1"><g transform="translate(27.623788, 63.276613)"><g><path d="M 4.859375 -3.25 C 2.398438 -5.925781 1.171875 -9.207031 1.171875 -13.09375 C 1.171875 -16.988281 2.398438 -20.285156 4.859375 -22.984375 C 7.316406 -25.679688 10.441406 -27.03125 14.234375 -27.03125 C 17.710938 -27.03125 20.582031 -25.941406 22.84375 -23.765625 L 22.84375 -44.03125 L 31.90625 -44.03125 L 31.90625 0 L 22.9375 0 L 22.9375 -2.96875 L 22.84375 -2.96875 C 20.582031 -0.476562 17.710938 0.765625 14.234375 0.765625 C 10.441406 0.765625 7.316406 -0.570312 4.859375 -3.25 Z M 12.5625 -17.5625 C 11.382812 -16.40625 10.796875 -14.921875 10.796875 -13.109375 C 10.796875 -11.296875 11.359375 -9.816406 12.484375 -8.671875 C 13.617188 -7.535156 15.109375 -6.96875 16.953125 -6.96875 C 18.722656 -6.96875 20.179688 -7.546875 21.328125 -8.703125 C 22.472656 -9.867188 23.046875 -11.335938 23.046875 -13.109375 C 23.046875 -14.921875 22.457031 -16.40625 21.28125 -17.5625 C 20.101562 -18.71875 18.660156 -19.296875 16.953125 -19.296875 C 15.210938 -19.296875 13.75 -18.71875 12.5625 -17.5625 Z M 12.5625 -17.5625 "/></g></g></g><g fill="#ffffff" fill-opacity="1"><g transform="translate(57.778745, 63.276613)"><g><path d="M 29.640625 -11.875 L 10.59375 -11.875 C 10.59375 -10.03125 11.191406 -8.664062 12.390625 -7.78125 C 13.585938 -6.894531 14.882812 -6.453125 16.28125 -6.453125 C 17.75 -6.453125 18.910156 -6.644531 19.765625 -7.03125 C 20.617188 -7.425781 21.59375 -8.207031 22.6875 -9.375 L 29.234375 -6.09375 C 26.503906 -1.519531 21.960938 0.765625 15.609375 0.765625 C 11.648438 0.765625 8.253906 -0.585938 5.421875 -3.296875 C 2.585938 -6.015625 1.171875 -9.285156 1.171875 -13.109375 C 1.171875 -16.929688 2.585938 -20.207031 5.421875 -22.9375 C 8.253906 -25.664062 11.648438 -27.03125 15.609375 -27.03125 C 19.773438 -27.03125 23.164062 -25.828125 25.78125 -23.421875 C 28.394531 -21.015625 29.703125 -17.578125 29.703125 -13.109375 C 29.703125 -12.492188 29.679688 -12.082031 29.640625 -11.875 Z M 10.859375 -16.890625 L 20.84375 -16.890625 C 20.632812 -18.253906 20.09375 -19.300781 19.21875 -20.03125 C 18.351562 -20.769531 17.238281 -21.140625 15.875 -21.140625 C 14.375 -21.140625 13.175781 -20.75 12.28125 -19.96875 C 11.394531 -19.1875 10.921875 -18.160156 10.859375 -16.890625 Z M 10.859375 -16.890625 "/></g></g></g><g fill="#ffffff" fill-opacity="1"><g transform="translate(83.837758, 63.276613)"><g><path d="M 9.734375 -26.265625 L 16.125 -11.984375 L 22.53125 -26.265625 L 33.28125 -26.265625 L 19.203125 0 L 13.0625 0 L -1.03125 -26.265625 Z M 9.734375 -26.265625 "/></g></g></g><g fill="#ffffff" fill-opacity="1"><g transform="translate(111.279149, 63.276613)"><g><path d="M 5.546875 -3.125 C 2.628906 -5.71875 1.171875 -9.046875 1.171875 -13.109375 C 1.171875 -17.171875 2.691406 -20.503906 5.734375 -23.109375 C 8.773438 -25.722656 12.53125 -27.03125 17 -27.03125 C 21.40625 -27.03125 25.117188 -25.71875 28.140625 -23.09375 C 31.160156 -20.46875 32.671875 -17.140625 32.671875 -13.109375 C 32.671875 -9.078125 31.191406 -5.753906 28.234375 -3.140625 C 25.285156 -0.535156 21.539062 0.765625 17 0.765625 C 12.289062 0.765625 8.472656 -0.53125 5.546875 -3.125 Z M 12.5625 -17.5625 C 11.382812 -16.40625 10.796875 -14.921875 10.796875 -13.109375 C 10.796875 -11.296875 11.359375 -9.816406 12.484375 -8.671875 C 13.617188 -7.535156 15.109375 -6.96875 16.953125 -6.96875 C 18.722656 -6.96875 20.179688 -7.546875 21.328125 -8.703125 C 22.472656 -9.867188 23.046875 -11.335938 23.046875 -13.109375 C 23.046875 -14.921875 22.457031 -16.40625 21.28125 -17.5625 C 20.101562 -18.71875 18.660156 -19.296875 16.953125 -19.296875 C 15.210938 -19.296875 13.75 -18.71875 12.5625 -17.5625 Z M 12.5625 -17.5625 "/></g></g></g><g fill="#ffffff" fill-opacity="1"><g transform="translate(140.30772, 63.276613)"><g><path d="M 30.109375 -23.015625 C 32.566406 -20.335938 33.796875 -17.050781 33.796875 -13.15625 C 33.796875 -9.269531 32.566406 -5.976562 30.109375 -3.28125 C 27.648438 -0.582031 24.523438 0.765625 20.734375 0.765625 C 17.253906 0.765625 14.390625 -0.328125 12.140625 -2.515625 L 12.140625 13.3125 L 3.078125 13.3125 L 3.078125 -26.265625 L 12.03125 -26.265625 L 12.03125 -23.296875 L 12.140625 -23.296875 C 14.390625 -25.785156 17.253906 -27.03125 20.734375 -27.03125 C 24.523438 -27.03125 27.648438 -25.691406 30.109375 -23.015625 Z M 22.40625 -8.703125 C 23.582031 -9.867188 24.171875 -11.351562 24.171875 -13.15625 C 24.171875 -14.96875 23.601562 -16.441406 22.46875 -17.578125 C 21.34375 -18.722656 19.863281 -19.296875 18.03125 -19.296875 C 16.25 -19.296875 14.785156 -18.71875 13.640625 -17.5625 C 12.503906 -16.40625 11.9375 -14.9375 11.9375 -13.15625 C 11.9375 -11.351562 12.523438 -9.867188 13.703125 -8.703125 C 14.878906 -7.546875 16.320312 -6.96875 18.03125 -6.96875 C 19.769531 -6.96875 21.226562 -7.546875 22.40625 -8.703125 Z M 22.40625 -8.703125 "/></g></g></g><g fill="#ffffff" fill-opacity="1"><g transform="translate(170.462682, 63.276613)"><g><path d="M 14.484375 -27.03125 C 15.992188 -27.03125 17.476562 -26.859375 18.9375 -26.515625 C 20.40625 -26.179688 21.5 -25.84375 22.21875 -25.5 L 23.296875 -24.984375 L 20.328125 -19.046875 C 18.273438 -20.140625 16.328125 -20.6875 14.484375 -20.6875 C 13.460938 -20.6875 12.738281 -20.570312 12.3125 -20.34375 C 11.882812 -20.125 11.671875 -19.707031 11.671875 -19.09375 C 11.671875 -18.957031 11.6875 -18.820312 11.71875 -18.6875 C 11.757812 -18.550781 11.828125 -18.421875 11.921875 -18.296875 C 12.023438 -18.179688 12.117188 -18.082031 12.203125 -18 C 12.296875 -17.914062 12.441406 -17.820312 12.640625 -17.71875 C 12.847656 -17.613281 13.007812 -17.535156 13.125 -17.484375 C 13.25 -17.429688 13.445312 -17.351562 13.71875 -17.25 C 13.988281 -17.15625 14.191406 -17.082031 14.328125 -17.03125 C 14.472656 -16.976562 14.707031 -16.898438 15.03125 -16.796875 C 15.351562 -16.691406 15.597656 -16.625 15.765625 -16.59375 C 16.828125 -16.28125 17.75 -15.9375 18.53125 -15.5625 C 19.320312 -15.1875 20.148438 -14.675781 21.015625 -14.03125 C 21.890625 -13.382812 22.566406 -12.566406 23.046875 -11.578125 C 23.523438 -10.585938 23.765625 -9.457031 23.765625 -8.1875 C 23.765625 -2.21875 19.613281 0.765625 11.3125 0.765625 C 9.4375 0.765625 7.65625 0.476562 5.96875 -0.09375 C 4.28125 -0.675781 3.054688 -1.257812 2.296875 -1.84375 L 1.171875 -2.765625 L 4.859375 -8.953125 C 5.140625 -8.722656 5.5 -8.441406 5.9375 -8.109375 C 6.382812 -7.785156 7.1875 -7.34375 8.34375 -6.78125 C 9.507812 -6.21875 10.515625 -5.9375 11.359375 -5.9375 C 13.242188 -5.9375 14.1875 -6.566406 14.1875 -7.828125 C 14.1875 -8.410156 13.945312 -8.863281 13.46875 -9.1875 C 12.988281 -9.507812 12.175781 -9.875 11.03125 -10.28125 C 9.882812 -10.695312 8.988281 -11.078125 8.34375 -11.421875 C 6.707031 -12.273438 5.410156 -13.238281 4.453125 -14.3125 C 3.492188 -15.382812 3.015625 -16.8125 3.015625 -18.59375 C 3.015625 -21.25 4.046875 -23.316406 6.109375 -24.796875 C 8.179688 -26.285156 10.972656 -27.03125 14.484375 -27.03125 Z M 14.484375 -27.03125 "/></g></g></g><g fill="#ffffff" fill-opacity="1"><g transform="translate(190.838588, 63.276613)"><g/></g></g><g fill="#ffffff" fill-opacity="1"><g transform="translate(200.001849, 63.276613)"><g><path d="M 8.90625 -10.953125 C 10.539062 -10.953125 11.929688 -10.378906 13.078125 -9.234375 C 14.222656 -8.097656 14.796875 -6.707031 14.796875 -5.0625 C 14.796875 -3.457031 14.222656 -2.082031 13.078125 -0.9375 C 11.929688 0.195312 10.539062 0.765625 8.90625 0.765625 C 7.300781 0.765625 5.925781 0.195312 4.78125 -0.9375 C 3.644531 -2.082031 3.078125 -3.457031 3.078125 -5.0625 C 3.078125 -6.707031 3.644531 -8.097656 4.78125 -9.234375 C 5.925781 -10.378906 7.300781 -10.953125 8.90625 -10.953125 Z M 8.90625 -10.953125 "/></g></g></g><g fill="#ffffff" fill-opacity="1"><g transform="translate(107.05731, 83.280189)"><g><path d="M 5.109375 -7.625 C 5.253906 -7.625 5.375 -7.578125 5.46875 -7.484375 C 5.5625 -7.398438 5.609375 -7.285156 5.609375 -7.140625 L 5.609375 -0.5 C 5.609375 -0.351562 5.5625 -0.234375 5.46875 -0.140625 C 5.375 -0.046875 5.253906 0 5.109375 0 C 4.972656 0 4.859375 -0.046875 4.765625 -0.140625 C 4.671875 -0.234375 4.625 -0.351562 4.625 -0.5 L 4.625 -0.78125 C 4.457031 -0.53125 4.21875 -0.316406 3.90625 -0.140625 C 3.59375 0.0234375 3.253906 0.109375 2.890625 0.109375 C 2.429688 0.109375 2.007812 -0.0078125 1.625 -0.25 C 1.25 -0.5 0.953125 -0.835938 0.734375 -1.265625 C 0.515625 -1.691406 0.40625 -2.175781 0.40625 -2.71875 C 0.40625 -3.25 0.507812 -3.726562 0.71875 -4.15625 C 0.9375 -4.59375 1.234375 -4.929688 1.609375 -5.171875 C 1.992188 -5.410156 2.410156 -5.53125 2.859375 -5.53125 C 3.222656 -5.53125 3.5625 -5.453125 3.875 -5.296875 C 4.1875 -5.148438 4.4375 -4.957031 4.625 -4.71875 L 4.625 -7.140625 C 4.625 -7.285156 4.671875 -7.398438 4.765625 -7.484375 C 4.859375 -7.578125 4.972656 -7.625 5.109375 -7.625 Z M 3.015625 -0.796875 C 3.335938 -0.796875 3.625 -0.878906 3.875 -1.046875 C 4.125 -1.210938 4.316406 -1.441406 4.453125 -1.734375 C 4.597656 -2.023438 4.671875 -2.351562 4.671875 -2.71875 C 4.671875 -3.070312 4.597656 -3.394531 4.453125 -3.6875 C 4.316406 -3.976562 4.125 -4.207031 3.875 -4.375 C 3.625 -4.539062 3.335938 -4.625 3.015625 -4.625 C 2.691406 -4.625 2.40625 -4.539062 2.15625 -4.375 C 1.90625 -4.207031 1.707031 -3.976562 1.5625 -3.6875 C 1.414062 -3.394531 1.34375 -3.070312 1.34375 -2.71875 C 1.34375 -2.351562 1.414062 -2.023438 1.5625 -1.734375 C 1.707031 -1.441406 1.90625 -1.210938 2.15625 -1.046875 C 2.40625 -0.878906 2.691406 -0.796875 3.015625 -0.796875 Z M 3.015625 -0.796875 "/></g></g></g><g fill="#ffffff" fill-opacity="1"><g transform="translate(120.102206, 83.280189)"><g><path d="M 5.46875 -2.90625 C 5.46875 -2.78125 5.414062 -2.675781 5.3125 -2.59375 C 5.21875 -2.507812 5.109375 -2.46875 4.984375 -2.46875 L 1.34375 -2.46875 C 1.394531 -1.96875 1.585938 -1.5625 1.921875 -1.25 C 2.253906 -0.945312 2.660156 -0.796875 3.140625 -0.796875 C 3.472656 -0.796875 3.742188 -0.84375 3.953125 -0.9375 C 4.160156 -1.039062 4.34375 -1.164062 4.5 -1.3125 C 4.601562 -1.375 4.703125 -1.40625 4.796875 -1.40625 C 4.910156 -1.40625 5.003906 -1.363281 5.078125 -1.28125 C 5.160156 -1.207031 5.203125 -1.113281 5.203125 -1 C 5.203125 -0.851562 5.132812 -0.722656 5 -0.609375 C 4.800781 -0.410156 4.535156 -0.238281 4.203125 -0.09375 C 3.878906 0.0390625 3.546875 0.109375 3.203125 0.109375 C 2.640625 0.109375 2.144531 -0.00390625 1.71875 -0.234375 C 1.300781 -0.472656 0.976562 -0.800781 0.75 -1.21875 C 0.519531 -1.644531 0.40625 -2.125 0.40625 -2.65625 C 0.40625 -3.226562 0.519531 -3.734375 0.75 -4.171875 C 0.988281 -4.609375 1.300781 -4.941406 1.6875 -5.171875 C 2.082031 -5.410156 2.503906 -5.53125 2.953125 -5.53125 C 3.390625 -5.53125 3.800781 -5.414062 4.1875 -5.1875 C 4.570312 -4.957031 4.878906 -4.644531 5.109375 -4.25 C 5.347656 -3.851562 5.46875 -3.40625 5.46875 -2.90625 Z M 2.953125 -4.625 C 2.566406 -4.625 2.234375 -4.515625 1.953125 -4.296875 C 1.671875 -4.078125 1.484375 -3.742188 1.390625 -3.296875 L 4.4375 -3.296875 L 4.4375 -3.375 C 4.40625 -3.738281 4.238281 -4.035156 3.9375 -4.265625 C 3.644531 -4.503906 3.316406 -4.625 2.953125 -4.625 Z M 2.953125 -4.625 "/></g></g></g><g fill="#ffffff" fill-opacity="1"><g transform="translate(132.693859, 83.280189)"><g><path d="M 3.078125 -5.53125 C 3.617188 -5.53125 4.070312 -5.441406 4.4375 -5.265625 C 4.800781 -5.097656 4.984375 -4.878906 4.984375 -4.609375 C 4.984375 -4.492188 4.941406 -4.390625 4.859375 -4.296875 C 4.785156 -4.203125 4.691406 -4.15625 4.578125 -4.15625 C 4.484375 -4.15625 4.410156 -4.164062 4.359375 -4.1875 C 4.316406 -4.21875 4.25 -4.265625 4.15625 -4.328125 C 4.113281 -4.367188 4.046875 -4.414062 3.953125 -4.46875 C 3.878906 -4.507812 3.765625 -4.546875 3.609375 -4.578125 C 3.453125 -4.609375 3.316406 -4.625 3.203125 -4.625 C 2.835938 -4.625 2.515625 -4.539062 2.234375 -4.375 C 1.960938 -4.207031 1.75 -3.976562 1.59375 -3.6875 C 1.445312 -3.394531 1.375 -3.070312 1.375 -2.71875 C 1.375 -2.351562 1.445312 -2.023438 1.59375 -1.734375 C 1.75 -1.441406 1.957031 -1.210938 2.21875 -1.046875 C 2.488281 -0.878906 2.796875 -0.796875 3.140625 -0.796875 C 3.503906 -0.796875 3.796875 -0.851562 4.015625 -0.96875 C 4.054688 -1 4.117188 -1.046875 4.203125 -1.109375 C 4.273438 -1.160156 4.335938 -1.195312 4.390625 -1.21875 C 4.441406 -1.25 4.503906 -1.265625 4.578125 -1.265625 C 4.710938 -1.265625 4.816406 -1.222656 4.890625 -1.140625 C 4.972656 -1.054688 5.015625 -0.941406 5.015625 -0.796875 C 5.015625 -0.660156 4.921875 -0.519531 4.734375 -0.375 C 4.554688 -0.238281 4.316406 -0.125 4.015625 -0.03125 C 3.710938 0.0625 3.382812 0.109375 3.03125 0.109375 C 2.507812 0.109375 2.046875 -0.0078125 1.640625 -0.25 C 1.242188 -0.5 0.9375 -0.835938 0.71875 -1.265625 C 0.507812 -1.703125 0.40625 -2.1875 0.40625 -2.71875 C 0.40625 -3.238281 0.515625 -3.710938 0.734375 -4.140625 C 0.960938 -4.578125 1.28125 -4.914062 1.6875 -5.15625 C 2.09375 -5.40625 2.554688 -5.53125 3.078125 -5.53125 Z M 3.078125 -5.53125 "/></g></g></g><g fill="#ffffff" fill-opacity="1"><g transform="translate(144.708672, 83.280189)"><g><path d="M 5.84375 -2.703125 C 5.84375 -2.160156 5.722656 -1.675781 5.484375 -1.25 C 5.242188 -0.832031 4.914062 -0.5 4.5 -0.25 C 4.082031 -0.0078125 3.625 0.109375 3.125 0.109375 C 2.625 0.109375 2.164062 -0.0078125 1.75 -0.25 C 1.332031 -0.5 1.003906 -0.832031 0.765625 -1.25 C 0.523438 -1.675781 0.40625 -2.160156 0.40625 -2.703125 C 0.40625 -3.234375 0.523438 -3.71875 0.765625 -4.15625 C 1.003906 -4.59375 1.332031 -4.929688 1.75 -5.171875 C 2.164062 -5.410156 2.625 -5.53125 3.125 -5.53125 C 3.625 -5.53125 4.082031 -5.410156 4.5 -5.171875 C 4.914062 -4.929688 5.242188 -4.59375 5.484375 -4.15625 C 5.722656 -3.71875 5.84375 -3.234375 5.84375 -2.703125 Z M 4.875 -2.703125 C 4.875 -3.078125 4.796875 -3.410156 4.640625 -3.703125 C 4.484375 -3.992188 4.269531 -4.21875 4 -4.375 C 3.738281 -4.539062 3.445312 -4.625 3.125 -4.625 C 2.800781 -4.625 2.503906 -4.539062 2.234375 -4.375 C 1.972656 -4.21875 1.765625 -3.992188 1.609375 -3.703125 C 1.453125 -3.410156 1.375 -3.078125 1.375 -2.703125 C 1.375 -2.335938 1.453125 -2.007812 1.609375 -1.71875 C 1.765625 -1.4375 1.972656 -1.210938 2.234375 -1.046875 C 2.503906 -0.878906 2.800781 -0.796875 3.125 -0.796875 C 3.445312 -0.796875 3.738281 -0.878906 4 -1.046875 C 4.269531 -1.210938 4.484375 -1.4375 4.640625 -1.71875 C 4.796875 -2.007812 4.875 -2.335938 4.875 -2.703125 Z M 4.875 -2.703125 "/></g></g></g><g fill="#ffffff" fill-opacity="1"><g transform="translate(157.67116, 83.280189)"><g><path d="M 5.109375 -7.625 C 5.253906 -7.625 5.375 -7.578125 5.46875 -7.484375 C 5.5625 -7.398438 5.609375 -7.285156 5.609375 -7.140625 L 5.609375 -0.5 C 5.609375 -0.351562 5.5625 -0.234375 5.46875 -0.140625 C 5.375 -0.046875 5.253906 0 5.109375 0 C 4.972656 0 4.859375 -0.046875 4.765625 -0.140625 C 4.671875 -0.234375 4.625 -0.351562 4.625 -0.5 L 4.625 -0.78125 C 4.457031 -0.53125 4.21875 -0.316406 3.90625 -0.140625 C 3.59375 0.0234375 3.253906 0.109375 2.890625 0.109375 C 2.429688 0.109375 2.007812 -0.0078125 1.625 -0.25 C 1.25 -0.5 0.953125 -0.835938 0.734375 -1.265625 C 0.515625 -1.691406 0.40625 -2.175781 0.40625 -2.71875 C 0.40625 -3.25 0.507812 -3.726562 0.71875 -4.15625 C 0.9375 -4.59375 1.234375 -4.929688 1.609375 -5.171875 C 1.992188 -5.410156 2.410156 -5.53125 2.859375 -5.53125 C 3.222656 -5.53125 3.5625 -5.453125 3.875 -5.296875 C 4.1875 -5.148438 4.4375 -4.957031 4.625 -4.71875 L 4.625 -7.140625 C 4.625 -7.285156 4.671875 -7.398438 4.765625 -7.484375 C 4.859375 -7.578125 4.972656 -7.625 5.109375 -7.625 Z M 3.015625 -0.796875 C 3.335938 -0.796875 3.625 -0.878906 3.875 -1.046875 C 4.125 -1.210938 4.316406 -1.441406 4.453125 -1.734375 C 4.597656 -2.023438 4.671875 -2.351562 4.671875 -2.71875 C 4.671875 -3.070312 4.597656 -3.394531 4.453125 -3.6875 C 4.316406 -3.976562 4.125 -4.207031 3.875 -4.375 C 3.625 -4.539062 3.335938 -4.625 3.015625 -4.625 C 2.691406 -4.625 2.40625 -4.539062 2.15625 -4.375 C 1.90625 -4.207031 1.707031 -3.976562 1.5625 -3.6875 C 1.414062 -3.394531 1.34375 -3.070312 1.34375 -2.71875 C 1.34375 -2.351562 1.414062 -2.023438 1.5625 -1.734375 C 1.707031 -1.441406 1.90625 -1.210938 2.15625 -1.046875 C 2.40625 -0.878906 2.691406 -0.796875 3.015625 -0.796875 Z M 3.015625 -0.796875 "/></g></g></g><g fill="#ffffff" fill-opacity="1"><g transform="translate(170.716056, 83.280189)"><g><path d="M 5.46875 -2.90625 C 5.46875 -2.78125 5.414062 -2.675781 5.3125 -2.59375 C 5.21875 -2.507812 5.109375 -2.46875 4.984375 -2.46875 L 1.34375 -2.46875 C 1.394531 -1.96875 1.585938 -1.5625 1.921875 -1.25 C 2.253906 -0.945312 2.660156 -0.796875 3.140625 -0.796875 C 3.472656 -0.796875 3.742188 -0.84375 3.953125 -0.9375 C 4.160156 -1.039062 4.34375 -1.164062 4.5 -1.3125 C 4.601562 -1.375 4.703125 -1.40625 4.796875 -1.40625 C 4.910156 -1.40625 5.003906 -1.363281 5.078125 -1.28125 C 5.160156 -1.207031 5.203125 -1.113281 5.203125 -1 C 5.203125 -0.851562 5.132812 -0.722656 5 -0.609375 C 4.800781 -0.410156 4.535156 -0.238281 4.203125 -0.09375 C 3.878906 0.0390625 3.546875 0.109375 3.203125 0.109375 C 2.640625 0.109375 2.144531 -0.00390625 1.71875 -0.234375 C 1.300781 -0.472656 0.976562 -0.800781 0.75 -1.21875 C 0.519531 -1.644531 0.40625 -2.125 0.40625 -2.65625 C 0.40625 -3.226562 0.519531 -3.734375 0.75 -4.171875 C 0.988281 -4.609375 1.300781 -4.941406 1.6875 -5.171875 C 2.082031 -5.410156 2.503906 -5.53125 2.953125 -5.53125 C 3.390625 -5.53125 3.800781 -5.414062 4.1875 -5.1875 C 4.570312 -4.957031 4.878906 -4.644531 5.109375 -4.25 C 5.347656 -3.851562 5.46875 -3.40625 5.46875 -2.90625 Z M 2.953125 -4.625 C 2.566406 -4.625 2.234375 -4.515625 1.953125 -4.296875 C 1.671875 -4.078125 1.484375 -3.742188 1.390625 -3.296875 L 4.4375 -3.296875 L 4.4375 -3.375 C 4.40625 -3.738281 4.238281 -4.035156 3.9375 -4.265625 C 3.644531 -4.503906 3.316406 -4.625 2.953125 -4.625 Z M 2.953125 -4.625 "/></g></g></g><g fill="#ffffff" fill-opacity="1"><g transform="translate(183.307709, 83.280189)"><g><path d="M 5.109375 -7.625 C 5.253906 -7.625 5.375 -7.578125 5.46875 -7.484375 C 5.5625 -7.398438 5.609375 -7.285156 5.609375 -7.140625 L 5.609375 -0.5 C 5.609375 -0.351562 5.5625 -0.234375 5.46875 -0.140625 C 5.375 -0.046875 5.253906 0 5.109375 0 C 4.972656 0 4.859375 -0.046875 4.765625 -0.140625 C 4.671875 -0.234375 4.625 -0.351562 4.625 -0.5 L 4.625 -0.78125 C 4.457031 -0.53125 4.21875 -0.316406 3.90625 -0.140625 C 3.59375 0.0234375 3.253906 0.109375 2.890625 0.109375 C 2.429688 0.109375 2.007812 -0.0078125 1.625 -0.25 C 1.25 -0.5 0.953125 -0.835938 0.734375 -1.265625 C 0.515625 -1.691406 0.40625 -2.175781 0.40625 -2.71875 C 0.40625 -3.25 0.507812 -3.726562 0.71875 -4.15625 C 0.9375 -4.59375 1.234375 -4.929688 1.609375 -5.171875 C 1.992188 -5.410156 2.410156 -5.53125 2.859375 -5.53125 C 3.222656 -5.53125 3.5625 -5.453125 3.875 -5.296875 C 4.1875 -5.148438 4.4375 -4.957031 4.625 -4.71875 L 4.625 -7.140625 C 4.625 -7.285156 4.671875 -7.398438 4.765625 -7.484375 C 4.859375 -7.578125 4.972656 -7.625 5.109375 -7.625 Z M 3.015625 -0.796875 C 3.335938 -0.796875 3.625 -0.878906 3.875 -1.046875 C 4.125 -1.210938 4.316406 -1.441406 4.453125 -1.734375 C 4.597656 -2.023438 4.671875 -2.351562 4.671875 -2.71875 C 4.671875 -3.070312 4.597656 -3.394531 4.453125 -3.6875 C 4.316406 -3.976562 4.125 -4.207031 3.875 -4.375 C 3.625 -4.539062 3.335938 -4.625 3.015625 -4.625 C 2.691406 -4.625 2.40625 -4.539062 2.15625 -4.375 C 1.90625 -4.207031 1.707031 -3.976562 1.5625 -3.6875 C 1.414062 -3.394531 1.34375 -3.070312 1.34375 -2.71875 C 1.34375 -2.351562 1.414062 -2.023438 1.5625 -1.734375 C 1.707031 -1.441406 1.90625 -1.210938 2.15625 -1.046875 C 2.40625 -0.878906 2.691406 -0.796875 3.015625 -0.796875 Z M 3.015625 -0.796875 "/></g></g></g></svg>